REM MD5 12c3b91f4092b2206396723e777ba5bb
FILE "Euro Demo 15 (Germany).bin" BINARY
  TRACK 01 MODE2/2352
    INDEX 01 00:00:00
  TRACK 02 AUDIO
    INDEX 00 18:43:62
    INDEX 01 18:45:62
  TRACK 03 AUDIO
    INDEX 00 20:44:04
    INDEX 01 20:46:04
REM LEADOUT 23:43:40
